<svg xmlns="http://www.w3.org/2000/svg" version="1.1" xmlns:xlink="http://www.w3.org/1999/xlink" xmlns:svgjs="http://svgjs.dev/svgjs" width="1500" height="1500" viewBox="0 0 1500 1500"><rect width="1500" height="1500" fill="#000000"></rect><g transform="matrix(0.6666666666666666,0,0,0.6666666666666666,248.8363516029155,650.7413082660673)"><svg viewBox="0 0 392 76" data-background-color="#ffffff" preserveAspectRatio="xMidYMid meet" height="290" width="1500" xmlns="http://www.w3.org/2000/svg" xmlns:xlink="http://www.w3.org/1999/xlink"><g id="tight-bounds" transform="matrix(1,0,0,1,0.45615017165712857,1.0189339919597842)"><svg viewBox="0 0 391.08769965668574 74.67070000000001" height="74.67070000000001" width="391.08769965668574"><g><svg viewBox="0 0 391.08769965668574 74.67070000000001" height="74.67070000000001" width="391.08769965668574"><g><svg viewBox="0 0 391.08769965668574 74.67070000000001" height="74.67070000000001" width="391.08769965668574"><g id="textblocktransform"><svg viewBox="0 0 391.08769965668574 74.67070000000001" height="74.67070000000001" width="391.08769965668574" id="textblock"><g><svg viewBox="0 0 391.08769965668574 74.67070000000001" height="74.67070000000001" width="391.08769965668574"><g><svg><g></g><g></g></svg></g><g><svg><g><svg></svg></g><g></g></svg></g><g id="text-0"><svg viewBox="0 0 391.08769965668574 74.67070000000001" height="74.67070000000001" width="391.08769965668574"><g transform="matrix(1,0,0,1,0,0)"><svg width="296.98390000000006" viewBox="3.05 -35.85 183.54 46.150000000000006" height="74.67070000000001" data-palette-color="#010c80"><g class="wordmark-text-0" data-fill-palette-color="primary"><path d="M16.6-35.1L16.6-35.1Q18.8-35.1 20.38-35 21.95-34.9 23.28-34.68 24.6-34.45 26-34.1L26-34.1 25.55-30.75Q24.05-30.9 22.78-31 21.5-31.1 20.05-31.15 18.6-31.2 16.6-31.2L16.6-31.2Q13.25-31.2 11.3-29.9 9.35-28.6 8.53-25.55 7.7-22.5 7.7-17.25L7.7-17.25Q7.7-12 8.53-8.95 9.35-5.9 11.3-4.6 13.25-3.3 16.6-3.3L16.6-3.3Q19.8-3.3 21.98-3.43 24.15-3.55 26.25-3.85L26.25-3.85 26.7-0.55Q24.55 0.05 22.28 0.33 20 0.6 16.6 0.6L16.6 0.6Q11.65 0.6 8.68-1.13 5.7-2.85 4.38-6.75 3.05-10.65 3.05-17.25L3.05-17.25Q3.05-23.85 4.38-27.75 5.7-31.65 8.68-33.38 11.65-35.1 16.6-35.1ZM42.7-24.95L42.7-24.95Q46.9-24.95 49.42-23.7 51.95-22.45 53.05-19.63 54.15-16.8 54.15-12.15L54.15-12.15Q54.15-7.5 53.05-4.67 51.95-1.85 49.42-0.6 46.9 0.65 42.7 0.65L42.7 0.65Q38.55 0.65 36.02-0.6 33.5-1.85 32.37-4.67 31.25-7.5 31.25-12.15L31.25-12.15Q31.25-16.8 32.37-19.63 33.5-22.45 36.02-23.7 38.55-24.95 42.7-24.95ZM42.7-21.35L42.7-21.35Q40.05-21.35 38.52-20.53 37-19.7 36.35-17.7 35.7-15.7 35.7-12.15L35.7-12.15Q35.7-8.6 36.35-6.6 37-4.6 38.52-3.78 40.05-2.95 42.7-2.95L42.7-2.95Q45.35-2.95 46.9-3.78 48.45-4.6 49.1-6.6 49.75-8.6 49.75-12.15L49.75-12.15Q49.75-15.7 49.1-17.7 48.45-19.7 46.9-20.53 45.35-21.35 42.7-21.35ZM90.45-24.95L90.45-24.95Q93.59-24.95 95.27-23.25 96.95-21.55 96.95-18.25L96.95-18.25 96.95 0 92.75 0 92.75-17.05Q92.7-19.3 91.84-20.33 91-21.35 88.95-21.35L88.95-21.35Q87.65-21.35 86.47-20.93 85.3-20.5 83.9-19.6 82.5-18.7 80.5-17.25L80.5-17.25 80.25-20.25Q82.9-22.6 85.4-23.78 87.9-24.95 90.45-24.95ZM60.8-24.35L64.3-24.35 64.59-19.7 65.05-18.95 65.05 0 60.8 0 60.8-24.35ZM74.5-24.95L74.5-24.95Q77.59-24.95 79.25-23.28 80.9-21.6 80.95-18.25L80.95-18.25 80.95 0 76.84 0 76.84-17.05Q76.84-19.4 75.9-20.38 74.95-21.35 73.05-21.35L73.05-21.35Q71.8-21.35 70.62-20.95 69.45-20.55 68.02-19.65 66.59-18.75 64.55-17.25L64.55-17.25 64.25-20.25Q66.9-22.6 69.4-23.78 71.9-24.95 74.5-24.95ZM118.54-24.95L118.54-24.95Q122.99-24.95 124.94-21.68 126.89-18.4 126.89-12.05L126.89-12.05Q126.89-7.35 125.89-4.58 124.89-1.8 122.87-0.6 120.84 0.6 117.69 0.6L117.69 0.6Q115.29 0.6 112.97-0.05 110.64-0.7 108.44-2.05L108.44-2.05 108.69-4.6Q111.04-3.95 112.84-3.53 114.64-3.1 116.64-3.1L116.64-3.1Q118.79-3.1 120.07-3.85 121.34-4.6 121.94-6.55 122.54-8.5 122.54-12.05L122.54-12.05Q122.54-15.5 121.99-17.5 121.44-19.5 120.27-20.38 119.09-21.25 117.14-21.25L117.14-21.25Q115.14-21.25 113.19-20.3 111.24-19.35 108.64-17.4L108.64-17.4 108.24-20.25Q109.59-21.7 111.29-22.75 112.99-23.8 114.87-24.38 116.74-24.95 118.54-24.95ZM104.59-24.35L108.09-24.35 108.54-19.3 108.84-18.65 108.84-3.05 108.64-2.45Q108.79-1.05 108.82 0.25 108.84 1.55 108.84 3L108.84 3 108.84 10.05 104.59 10.05 104.59-24.35ZM133.79-24.35L137.99-24.35 137.99 0 133.79 0 133.79-24.35ZM134.89-34.7L136.89-34.7Q138.19-34.7 138.19-33.4L138.19-33.4 138.19-30.55Q138.19-29.25 136.89-29.25L136.89-29.25 134.89-29.25Q133.59-29.25 133.59-30.55L133.59-30.55 133.59-33.4Q133.59-34.7 134.89-34.7L134.89-34.7ZM154.99-35.85L154.99-35.85Q155.79-35.85 157.04-35.83 158.29-35.8 159.59-35.73 160.89-35.65 161.84-35.5L161.84-35.5 161.49-32.35 156.49-32.35Q154.09-32.35 153.11-31.4 152.14-30.45 152.14-28.25L152.14-28.25 152.14 0 147.89 0 147.89-28.7Q147.89-31 148.59-32.58 149.29-34.15 150.84-35 152.39-35.85 154.99-35.85ZM148.14-24.35L159.94-24.35 159.94-21 143.49-21 143.49-24.1 148.14-24.35ZM181.99-24.35L186.59-24.35 176.84 1.35Q176.24 2.95 175.34 4.5 174.44 6.05 173.16 7.33 171.89 8.6 170.16 9.4 168.44 10.2 166.19 10.3L166.19 10.3 165.78 7.5Q168.74 6.55 170.34 4.95 171.94 3.35 172.89 1.05L172.89 1.05 174.09-1.85Q174.49-2.85 174.89-4.05 175.28-5.25 175.64-6.2L175.64-6.2 181.99-24.35ZM161.99-24.35L166.53-24.35 172.99-6.2Q173.24-5.45 173.49-4.73 173.74-4 173.89-3.25L173.89-3.25 175.03-3.25 173.64 0 172.34 0Q171.84 0 171.41-0.3 170.99-0.6 170.84-1.1L170.84-1.1 161.99-24.35Z" fill="#ffffff" data-fill-palette-color="primary"></path></g></svg></g><g><svg xmlns="http://www.w3.org/2000/svg" xmlns:xlink="http://www.w3.org/1999/xlink" version="1.1" x="314.61320000000006" y="0" viewBox="11.017823632605122 11.461749422187646 37.96369815853941 37.06825057781236" style="enable-background:new 0 0 60 60;" xml:space="preserve" height="74.67070000000001" width="76.47449965668567" class="icon-dxe-0" data-fill-palette-color="accent" id="dxe-0"><path d="M48.85 34.1L35.82 11.92A0.945 0.945 0 0 0 34.2 11.92L30 19.08 25.79 11.93A0.945 0.945 0 0 0 24.17 11.93L11.15 34.1C10.93 34.47 10.99 34.93 11.29 35.23L24.32 48.26C24.5 48.44 24.74 48.53 24.98 48.53S25.46 48.44 25.64 48.26L30 43.91 34.35 48.26C34.53 48.44 34.77 48.53 35.01 48.53S35.49 48.44 35.67 48.26L48.7 35.23C49.01 34.93 49.07 34.46 48.85 34.1M24.99 46.28L13.13 34.42 24.99 14.24 28.92 20.92 21.17 34.1C20.95 34.47 21.01 34.93 21.31 35.23L28.67 42.59zM30 22.77L36.85 34.42 30 41.27 23.15 34.42zM35.01 46.28L31.32 42.59 38.68 35.23C38.98 34.93 39.04 34.46 38.82 34.1L31.08 20.93 35.01 14.25 46.87 34.43z" fill="#ffffff" data-fill-palette-color="accent"></path></svg></g></svg></g></svg></g></svg></g></svg></g><g></g></svg></g><defs></defs></svg><rect width="391.08769965668574" height="74.67070000000001" fill="none" stroke="none" visibility="hidden"></rect></g></svg></g></svg>